<svg xmlns="http://www.w3.org/2000/svg" width="1280" height="720" viewBox="0 0 1280 720"><rect width="1280" height="720" fill="#071722"/>
  <g transform="translate(128 72) scale(.8)">
  <rect width="1280" height="720" fill="#071722"/>
  <rect x="80" y="58" width="1120" height="2" fill="#43d0c0" opacity=".7"/>
  <text x="80" y="34" font-family="DejaVu Sans,Arial" font-size="14" font-weight="700" fill="#43d0c0" text-anchor="start">04  /  SHARE</text>
  <text x="270" y="38" font-family="DejaVu Sans,Arial" font-size="25" font-weight="500" fill="#f5f7f6" text-anchor="start">Open the executive report</text>
  <text x="1198" y="35" font-family="DejaVu Sans,Arial" font-size="12" font-weight="500" fill="#9aadb2" text-anchor="end">IN APP  •  PRINT  •  ONE-PAGE PDF</text>
      <rect x="80" y="70" width="1120" height="610" fill="#dce5e7"/>
      <rect x="176" y="88" width="928" height="572" rx="3" fill="white" stroke="#c6d2d5"/>
      <text x="204" y="122" font-family="DejaVu Sans,Arial" font-size="21" font-weight="700" fill="#183446" text-anchor="start">Annual In-House Increase Plan</text>
      <text x="204" y="143" font-family="DejaVu Sans,Arial" font-size="9" font-weight="400" fill="#667b85" text-anchor="start">All campuses  •  AL · SL · HC  •  Plan year 2027  •  Effective Feb 1</text>
      <rect x="204" y="164" width="202" height="66" rx="10" fill="#f6f9f9" stroke="#dbe4e7"/><text x="218" y="186" font-family="DejaVu Sans,Arial" font-size="8" font-weight="700" fill="#667b85" text-anchor="start">AVG INCREASE</text><text x="218" y="216" font-family="DejaVu Sans,Arial" font-size="18" font-weight="700" fill="#087f78" text-anchor="start">4.4%</text><rect x="422" y="164" width="202" height="66" rx="10" fill="#f6f9f9" stroke="#dbe4e7"/><text x="436" y="186" font-family="DejaVu Sans,Arial" font-size="8" font-weight="700" fill="#667b85" text-anchor="start">CURRENT-YEAR IMPACT</text><text x="436" y="216" font-family="DejaVu Sans,Arial" font-size="18" font-weight="700" fill="#183446" text-anchor="start">+$1.84M</text><rect x="640" y="164" width="202" height="66" rx="10" fill="#f6f9f9" stroke="#dbe4e7"/><text x="654" y="186" font-family="DejaVu Sans,Arial" font-size="8" font-weight="700" fill="#667b85" text-anchor="start">ANNUALIZED IMPACT</text><text x="654" y="216" font-family="DejaVu Sans,Arial" font-size="18" font-weight="700" fill="#183446" text-anchor="start">+$2.21M</text><rect x="858" y="164" width="202" height="66" rx="10" fill="#f6f9f9" stroke="#dbe4e7"/><text x="872" y="186" font-family="DejaVu Sans,Arial" font-size="8" font-weight="700" fill="#667b85" text-anchor="start">CURRENT OCCUPANCY</text><text x="872" y="216" font-family="DejaVu Sans,Arial" font-size="18" font-weight="700" fill="#183446" text-anchor="start">91.2%</text>
      <rect x="204" y="246" width="568" height="202" rx="10" fill="#fff" stroke="#dbe4e7"/>
      <text x="224" y="270" font-family="DejaVu Sans,Arial" font-size="11" font-weight="700" fill="#183446" text-anchor="start">Street Rate vs In-House Rate</text>
      <line x1="236" y1="420" x2="744" y2="420" stroke="#cbd7da"/><line x1="236" y1="296" x2="236" y2="420" stroke="#cbd7da"/>
      <polyline points="236,392 332,378 428,359 524,338 620,314 744,288" fill="none" stroke="#43d0c0" stroke-width="3"/>
      <polyline points="236,408 332,398 428,386 524,365 620,350 744,330" fill="none" stroke="#e9bd65" stroke-width="3" stroke-dasharray="8 5"/>
      <line x1="524" y1="290" x2="524" y2="420" stroke="#6f838b" stroke-dasharray="3 4"/>
      <text x="532" y="306" font-family="DejaVu Sans,Arial" font-size="8" font-weight="700" fill="#667b85" text-anchor="start">ANNUAL INCREASE</text>
      <text x="600" y="438" font-family="DejaVu Sans,Arial" font-size="8" font-weight="600" fill="#667b85" text-anchor="start">Solid Street  —  Dashed in-house</text>
      <rect x="790" y="246" width="286" height="202" rx="10" fill="#fff" stroke="#dbe4e7"/>
      <text x="810" y="270" font-family="DejaVu Sans,Arial" font-size="11" font-weight="700" fill="#183446" text-anchor="start">Executive interpretation</text>
      <text x="810" y="300" font-family="DejaVu Sans,Arial" font-size="10" font-weight="400" fill="#536a74" text-anchor="start">• Measured tiers drive totals</text>
      <text x="810" y="325" font-family="DejaVu Sans,Arial" font-size="10" font-weight="400" fill="#536a74" text-anchor="start">• Variance remains intentional</text>
      <text x="810" y="350" font-family="DejaVu Sans,Arial" font-size="10" font-weight="400" fill="#536a74" text-anchor="start">• Turnover supports later quarters</text>
      <text x="810" y="375" font-family="DejaVu Sans,Arial" font-size="10" font-weight="400" fill="#536a74" text-anchor="start">• Every forecast reconciles</text>
      <text x="810" y="413" font-family="DejaVu Sans,Arial" font-size="10" font-weight="700" fill="#087f78" text-anchor="start">Status: CALCULATED</text>
      <rect x="204" y="466" width="872" height="148" rx="10" fill="#fff" stroke="#dbe4e7"/>
      <text x="224" y="491" font-family="DejaVu Sans,Arial" font-size="11" font-weight="700" fill="#183446" text-anchor="start">Service line summary</text>
      <text x="224" y="522" font-family="DejaVu Sans,Arial" font-size="10" font-weight="500" fill="#536a74" text-anchor="start">AL     4.3%     +$812K     −3.1% vs Street</text><text x="224" y="549" font-family="DejaVu Sans,Arial" font-size="10" font-weight="700" fill="#536a74" text-anchor="start">SL     5.1%     +$944K     −2.6% vs Street</text><text x="224" y="576" font-family="DejaVu Sans,Arial" font-size="10" font-weight="500" fill="#536a74" text-anchor="start">HC     3.0%     +$454K     −4.2% vs Street</text>
      <rect x="868" y="574" width="184" height="24" rx="12" fill="#123044"/><text x="960" y="591" font-family="DejaVu Sans,Arial" font-size="9" font-weight="700" fill="white" text-anchor="middle">DOWNLOAD PDF</text>
    </g>
  <rect x="128" y="72" width="1024" height="576" rx="4" fill="none" stroke="#ffffff" opacity=".7"/></svg>